HIERARCHY
ROOT Hips
{
	OFFSET -3.958830 18.904000 13.208200
	CHANNELS 6 Xposition Yposition Zposition Zrotation Yrotation Xrotation 
	JOINT LHipJoint
	{
		OFFSET 0.000000 0.000000 0.000000
		CHANNELS 3 Zrotation Yrotation Xrotation
		JOINT LeftUpLeg
		{
			OFFSET 1.800000 -1.400000 0.085000
			CHANNELS 3 Zrotation Yrotation Xrotation
			JOINT LeftLeg
			{
				OFFSET 2.215000 -6.000000 0.000000
				CHANNELS 3 Zrotation Yrotation Xrotation
				JOINT LeftFoot
				{
					OFFSET 2.500000 -6.900000 0.000000
					CHANNELS 3 Zrotation Yrotation Xrotation
					JOINT LeftToeBase
					{
						OFFSET 0.200000 -0.500000 1.950000
						CHANNELS 3 Zrotation Yrotation Xrotation
						End Site
						{
							OFFSET 0.000000 0.000000 0.000000
						}
					}
				}
			}
		}
	}
	JOINT RHipJoint
	{
		OFFSET 0.000000 0.000000 0.000000
		CHANNELS 3 Zrotation Yrotation Xrotation
		JOINT RightUpLeg
		{
			OFFSET -1.800000 -1.400000 0.085000
			CHANNELS 3 Zrotation Yrotation Xrotation
			JOINT RightLeg
			{
				OFFSET -2.215000 -6.000000 0.000000
				CHANNELS 3 Zrotation Yrotation Xrotation
				JOINT RightFoot
				{
					OFFSET -2.500000 -6.900000 0.000000
					CHANNELS 3 Zrotation Yrotation Xrotation
					JOINT RightToeBase
					{
						OFFSET -0.200000 -0.500000 1.950000
						CHANNELS 3 Zrotation Yrotation Xrotation
						End Site
						{
							OFFSET 0.000000 0.000000 0.000000
						}
					}
				}
			}
		}
	}
	JOINT LowerBack
	{
		OFFSET 0.000000 0.000000 0.000000
		CHANNELS 3 Zrotation Yrotation Xrotation
		JOINT Spine
		{
			OFFSET -0.087000 1.940000 -0.288900
			CHANNELS 3 Zrotation Yrotation Xrotation
			JOINT Spine1
			{
				OFFSET 0.000000 1.950000 0.060000
				CHANNELS 3 Zrotation Yrotation Xrotation
				JOINT Neck
				{
					OFFSET 0.000000 0.000000 0.000000
					CHANNELS 3 Zrotation Yrotation Xrotation
					JOINT Neck1
					{
						OFFSET 0.000000 1.600000 0.340000
						CHANNELS 3 Zrotation Yrotation Xrotation
						JOINT Head
						{
							OFFSET 0.000000 1.667000 -0.240000
							CHANNELS 3 Zrotation Yrotation Xrotation
							End Site
							{
								OFFSET 0.000000 0.000000 0.000000
							}
						}
					}
				}
				JOINT LeftShoulder
				{
					OFFSET 0.000000 0.000000 0.000000
					CHANNELS 3 Zrotation Yrotation Xrotation
					JOINT LeftArm
					{
						OFFSET 2.700000 1.550000 -0.730000
						CHANNELS 3 Zrotation Yrotation Xrotation
						JOINT LeftForeArm
						{
							OFFSET 5.450000 0.000000 0.000000
							CHANNELS 3 Zrotation Yrotation Xrotation
							JOINT LeftHand
							{
								OFFSET 3.450000 0.000000 0.000000
								CHANNELS 3 Zrotation Yrotation Xrotation
								JOINT LeftHandIndex1
								{
									OFFSET 0.750000 0.000000 0.000000
									CHANNELS 3 Zrotation Yrotation Xrotation
									End Site
									{
										OFFSET 0.000000 0.000000 0.000000
									}
								}
							}
						}
					}
				}
				JOINT RightShoulder
				{
					OFFSET 0.000000 0.000000 0.000000
					CHANNELS 3 Zrotation Yrotation Xrotation
					JOINT RightArm
					{
						OFFSET -2.700000 1.550000 -0.730000
						CHANNELS 3 Zrotation Yrotation Xrotation
						JOINT RightForeArm
						{
							OFFSET -5.450000 0.000000 0.000000
							CHANNELS 3 Zrotation Yrotation Xrotation
							JOINT RightHand
							{
								OFFSET -3.450000 0.000000 0.000000
								CHANNELS 3 Zrotation Yrotation Xrotation
								JOINT RightHandIndex1
								{
									OFFSET -0.750000 0.000000 0.000000
									CHANNELS 3 Zrotation Yrotation Xrotation
									End Site
									{
										OFFSET 0.000000 0.000000 0.000000
									}
								}
							}
						}
					}
				}
			}
		}
	}
}
MOTION
Frames: 9
Frame Time: 0.016667
0.676330 16.839450 -2.886700 2.762728 -34.672936 -4.857609 -15.032820 13.709277 3.306084 9.986836 -3.775957 -26.050656 5.800049 8.358166 50.685945 0.498235 8.530323 1.380782 0.303680 0.260350 0.313220 18.276526 -10.947544 2.410239 -19.236982 0.972525 -23.067393 5.851239 -6.473233 22.251471 -0.086510 -3.708040 2.862595 0.198150 -0.031220 0.126700 -3.579139 -2.381335 -7.434718 8.580173 -2.024161 17.955874 -1.321330 -1.708663 10.083391 -0.216489 -7.571105 -10.148176 -16.821858 14.776101 36.738998 -8.158070 12.058290 -8.179340 -11.878232 -4.782411 4.616666 -28.077384 0.733800 -4.134094 -28.653157 -47.306820 10.636277 -3.632700 3.385017 0.201870 0.059450 0.111240 0.040520 12.419031 11.170521 4.691237 45.110516 16.513586 -1.296264 113.703060 69.326427 78.352108 2.871966 -0.447065 -0.047330 0.075070 -0.074600 -0.141760 
0.623830 16.767840 -2.890870 3.242883 -36.819377 -5.280201 -15.003884 13.755215 3.228130 8.941961 -3.746729 -26.309291 9.920755 6.390534 52.723973 0.549786 8.642003 1.357139 0.295880 0.246040 0.317030 18.293458 -10.974994 2.495303 -19.543783 0.970366 -23.213065 5.720125 -5.975758 19.898794 -0.054687 -3.454353 2.952249 0.190930 -0.038050 0.123730 -3.690203 -2.267699 -7.413786 9.427292 -2.151714 18.294267 -1.598634 -1.812097 9.916525 -0.190687 -8.029434 -10.321264 -17.641207 15.422631 36.485009 -8.962460 12.333150 -8.131210 -12.685714 -5.078570 4.945420 -27.917327 2.525869 -4.244046 -31.505877 -42.693003 10.251782 -3.638198 3.368736 0.206470 0.055890 0.111640 0.034910 13.203769 11.885750 4.725849 46.462065 17.538708 -1.123426 120.640921 68.253449 86.359003 2.664039 -0.633965 -0.052240 0.073540 -0.072210 -0.146900 
0.575520 16.678840 -2.889960 3.089536 -38.972669 -5.723417 -14.969155 13.887211 3.091591 8.554944 -3.301678 -25.687346 13.149157 4.726759 53.198418 0.571581 8.626766 1.369466 0.303600 0.254840 0.323140 18.303134 -11.019582 2.587115 -19.277404 1.219773 -23.408031 6.203364 -6.030273 19.952657 -0.060358 -3.457582 2.949158 0.196470 -0.044040 0.122160 -3.779387 -2.249050 -7.368979 10.610333 -2.477709 19.041406 -1.322025 -2.108687 9.625171 -0.245158 -8.492054 -10.335814 -18.535477 16.445470 36.516826 -9.317310 12.658930 -8.190580 -14.365210 -5.580229 5.269976 -28.157399 4.009527 -4.253835 -33.409578 -36.374401 8.701530 -3.644539 3.339683 0.210520 0.050360 0.117930 0.036770 15.024921 12.814251 4.526676 46.385906 18.927839 -0.867214 128.401126 67.967062 97.091610 2.449241 -0.774523 -0.051230 0.077360 -0.075480 -0.146800 
0.527880 16.606710 -2.881890 2.439796 -40.340242 -6.145454 -14.907997 14.062329 2.906276 8.329657 -2.775271 -24.300512 15.971276 2.977169 51.560241 0.520905 8.320482 1.477879 0.297830 0.243610 0.333830 18.328357 -11.142909 2.664795 -18.673436 1.579194 -23.955433 6.347232 -6.448959 22.422000 -0.081743 -3.679330 2.863438 0.193990 -0.050190 0.127230 -3.914218 -2.188283 -7.270564 12.488316 -3.017019 19.934856 -1.526531 -2.504369 9.342456 -0.110305 -8.864209 -10.098666 -19.190171 17.021847 36.343149 -10.671630 13.059490 -8.229700 -16.865348 -5.909195 5.219956 -27.985042 4.866437 -4.331370 -33.097868 -32.874662 7.375140 -3.663556 3.313842 0.208350 0.058160 0.117250 0.027020 17.211877 13.323032 4.350051 46.232323 19.794611 -0.421563 136.358054 67.754597 108.365612 2.266999 -0.971508 -0.054050 0.073660 -0.070130 -0.155440 
0.493540 16.554240 -2.886390 1.861779 -41.066936 -6.420955 -14.870275 14.154254 2.759017 7.656021 -2.508875 -23.094645 18.662192 1.259405 49.422033 0.471446 7.967412 1.596042 0.298550 0.240540 0.352270 18.348373 -11.170330 2.807618 -18.730095 2.024354 -24.843242 7.503806 -7.314590 25.286389 -0.140222 -4.080951 2.702562 0.187570 -0.077000 0.131420 -4.022590 -2.150605 -7.232049 13.970959 -3.740530 20.946527 -1.958741 -3.095520 9.270589 0.250320 -8.975415 -10.081775 -19.161913 17.598014 36.418690 -11.921100 13.659050 -8.851680 -18.606510 -6.249367 5.496906 -28.518969 6.799464 -5.111892 -32.555088 -33.016843 7.002821 -3.643784 3.310504 0.221870 0.047880 0.132830 0.012280 18.263755 13.632357 4.204580 46.799515 20.785935 0.096042 142.665167 67.660743 117.322328 2.166817 -1.116542 -0.049570 0.063210 -0.068330 -0.168350 
0.457260 16.518570 -2.889810 1.472297 -41.436751 -6.677259 -14.847398 14.180377 2.648874 6.993860 -2.378795 -21.902410 20.787702 -0.028979 48.131342 0.465177 7.805347 1.650602 0.315240 0.254310 0.371660 18.366524 -11.160513 2.938389 -19.104902 2.312409 -25.328609 8.953724 -8.161560 27.058852 -0.205269 -4.446372 2.554464 0.190100 -0.110340 0.136390 -4.126537 -2.096486 -7.204342 15.272102 -4.243807 21.545125 -2.242523 -3.500982 9.274040 0.410191 -9.154397 -9.976494 -19.446118 17.777780 36.576311 -12.691910 13.569810 -9.567270 -19.716067 -5.951660 5.546310 -29.545928 8.215732 -6.021643 -32.276671 -36.314126 7.702937 -3.606855 3.336328 0.237160 0.027500 0.152470 0.005050 19.046642 13.327190 4.062460 47.767324 20.984236 0.261813 146.540930 67.570562 122.774002 2.123513 -1.214879 -0.037460 0.049770 -0.075150 -0.176060 
0.430800 16.502620 -2.881250 1.523770 -41.496862 -6.688493 -14.855553 14.187736 2.639357 6.017812 -2.445677 -21.483469 22.485581 -1.013645 47.842407 0.502033 7.809346 1.644258 0.329200 0.269140 0.388910 18.368447 -11.093261 2.987100 -19.531922 2.402553 -25.590866 9.710949 -8.586968 27.708354 -0.247257 -4.590990 2.491626 0.184020 -0.150680 0.132130 -4.132018 -2.194043 -7.206514 15.787833 -4.745002 21.659240 -2.028084 -3.972849 9.195354 0.503077 -9.480589 -10.281921 -20.364466 18.500403 36.921497 -13.269230 13.758250 -10.448110 -19.351994 -5.382067 5.816266 -32.801452 9.537484 -7.139998 -33.594352 -36.499711 7.778962 -3.564764 3.324256 0.263800 -0.007890 0.182800 -0.002670 18.581594 12.852531 4.103504 49.723086 20.565877 -0.128925 148.006441 67.594716 124.637995 2.130948 -1.241482 -0.023230 0.043550 -0.082220 -0.181360 
0.411310 16.511360 -2.885530 1.860591 -41.558279 -6.817444 -14.869588 14.172081 2.676225 5.457517 -2.557739 -21.717940 22.430700 -1.010643 48.332430 0.521080 7.872310 1.624562 0.330830 0.268660 0.388500 18.367520 -11.033983 2.986672 -19.748900 2.446491 -25.862008 9.740995 -8.703170 28.158348 -0.260856 -4.637056 2.476543 0.179100 -0.157010 0.122950 -4.119006 -2.293357 -7.216046 15.914715 -4.993964 21.714137 -1.580303 -4.210970 8.936343 0.303021 -9.807900 -10.440675 -21.455370 19.187255 37.207337 -13.230750 13.767710 -10.530400 -19.077192 -4.781493 5.864129 -35.217006 9.909406 -7.744167 -35.111113 -36.235949 7.915990 -3.549776 3.306372 0.279400 -0.024030 0.191360 -0.000120 18.745937 12.370524 4.106310 51.558572 19.942918 -0.846081 146.811423 68.207896 123.525272 2.147323 -1.183834 -0.025040 0.054070 -0.082850 -0.180410 
0.390600 16.529140 -2.878250 2.242050 -41.655913 -7.076715 -14.869711 14.207858 2.703364 4.986150 -2.559851 -21.589377 22.221612 -0.922245 48.387686 0.538827 7.851302 1.635478 0.330880 0.269060 0.387820 18.361466 -11.056456 2.930292 -19.654636 2.356486 -25.585803 9.077762 -8.449756 28.054840 -0.250068 -4.547246 2.514202 0.172160 -0.164140 0.116920 -4.090140 -2.367532 -7.199401 15.815025 -5.128564 21.521667 -1.156744 -4.428320 8.797048 0.170428 -9.929704 -10.574435 -22.049965 19.541029 37.839595 -13.252150 13.879680 -10.056710 -19.105031 -4.546194 6.008749 -36.564006 10.408145 -8.076723 -35.970251 -35.241715 7.708039 -3.535117 3.300848 0.279820 -0.033500 0.197320 0.005050 19.086541 12.183079 4.073563 52.783777 19.721153 -1.698106 144.250917 69.498915 121.458057 2.167561 -1.063147 -0.019860 0.051270 -0.091410 -0.175520 
